# xmcd
#
# Track frame offsets:
#	150
#	15910
#	29558
#	46104
#	60949
#	75350
#	90507
#	108116
#	124007
#	140801
#	155333
#	176851
#	194524
#
# Disc length: 2806 seconds
# Revision: 0
# Processed by: cddbd v1.5.2PL0 Copyright (c) Steve Scherf et al.
# Submitted via: dBpowerAMP V12.0
#
DISCID=9a0af40d
DTITLE=Sarah Darling - Wonderland
DYEAR=2019
DGENRE=Country
TTITLE0=Blue Sky
TTITLE1=Call Me
TTITLE2=London Fog
TTITLE3=A Boy Like You
TTITLE4=Shine
TTITLE5=Light It Up
TTITLE6=Enjoy The Ride
TTITLE7=Timelapse
TTITLE8=Fire
TTITLE9=Diamonds
TTITLE10=Dreams Fade Away
TTITLE11=A Little Bit Of Rain
TTITLE12=Talk About The Weather
EXTD=
EXTT0=
EXTT1=
EXTT2=
EXTT3=
EXTT4=
EXTT5=
EXTT6=
EXTT7=
EXTT8=
EXTT9=
EXTT10=
EXTT11=
EXTT12=
PLAYORDER=
